<svg width="103" height="59" viewBox="0 0 103 59" fill="none" xmlns="http://www.w3.org/2000/svg">
<path d="M37.392 41.1364C36.8466 41.1364 36.3651 40.9986 35.9474 40.723C35.5298 40.4446 35.2031 40.0526 34.9673 39.5469C34.7315 39.0384 34.6136 38.4375 34.6136 37.7443C34.6136 37.0568 34.7315 36.4602 34.9673 35.9545C35.2031 35.4489 35.5313 35.0582 35.9517 34.7827C36.3722 34.5071 36.858 34.3693 37.4091 34.3693C37.8352 34.3693 38.1719 34.4403 38.419 34.5824C38.669 34.7216 38.8594 34.8807 38.9901 35.0597C39.1236 35.2358 39.2273 35.3807 39.3011 35.4943H39.3864V32.2727H40.392V41H39.4205V39.9943H39.3011C39.2273 40.1136 39.1222 40.2642 38.9858 40.446C38.8494 40.625 38.6548 40.7855 38.402 40.9276C38.1491 41.0668 37.8125 41.1364 37.392 41.1364ZM37.5284 40.233C37.9318 40.233 38.2727 40.1278 38.5511 39.9176C38.8295 39.7045 39.0412 39.4105 39.1861 39.0355C39.331 38.6577 39.4034 38.2216 39.4034 37.7273C39.4034 37.2386 39.3324 36.8111 39.1903 36.4446C39.0483 36.0753 38.8381 35.7884 38.5597 35.5838C38.2813 35.3764 37.9375 35.2727 37.5284 35.2727C37.1023 35.2727 36.7472 35.3821 36.4631 35.6009C36.1818 35.8168 35.9702 36.1108 35.8281 36.483C35.6889 36.8523 35.6193 37.267 35.6193 37.7273C35.6193 38.1932 35.6903 38.6165 35.8324 38.9972C35.9773 39.375 36.1903 39.6761 36.4716 39.9006C36.7557 40.1222 37.108 40.233 37.5284 40.233ZM45.1179 41.1364C44.4872 41.1364 43.9432 40.9972 43.4858 40.7188C43.0312 40.4375 42.6804 40.0455 42.4332 39.5426C42.1889 39.0369 42.0668 38.4489 42.0668 37.7784C42.0668 37.108 42.1889 36.517 42.4332 36.0057C42.6804 35.4915 43.0241 35.0909 43.4645 34.804C43.9077 34.5142 44.4247 34.3693 45.0156 34.3693C45.3565 34.3693 45.6932 34.4261 46.0256 34.5398C46.358 34.6534 46.6605 34.8381 46.9332 35.0938C47.206 35.3466 47.4233 35.6818 47.5852 36.0994C47.7472 36.517 47.8281 37.0312 47.8281 37.642V38.0682H42.7827V37.1989H46.8054C46.8054 36.8295 46.7315 36.5 46.5838 36.2102C46.4389 35.9205 46.2315 35.6918 45.9616 35.5241C45.6946 35.3565 45.3793 35.2727 45.0156 35.2727C44.6151 35.2727 44.2685 35.3722 43.9759 35.571C43.6861 35.767 43.4631 36.0227 43.3068 36.3381C43.1506 36.6534 43.0724 36.9915 43.0724 37.3523V37.9318C43.0724 38.4261 43.1577 38.8452 43.3281 39.1889C43.5014 39.5298 43.7415 39.7898 44.0483 39.9688C44.3551 40.1449 44.7116 40.233 45.1179 40.233C45.3821 40.233 45.6207 40.196 45.8338 40.1222C46.0497 40.0455 46.2358 39.9318 46.392 39.7812C46.5483 39.6278 46.669 39.4375 46.7543 39.2102L47.7259 39.483C47.6236 39.8125 47.4517 40.1023 47.2102 40.3523C46.9688 40.5994 46.6705 40.7926 46.3153 40.9318C45.9602 41.0682 45.5611 41.1364 45.1179 41.1364ZM53.9943 35.9205L53.0909 36.1761C53.0341 36.0256 52.9503 35.8793 52.8395 35.7372C52.7315 35.5923 52.5838 35.473 52.3963 35.3793C52.2088 35.2855 51.9688 35.2386 51.6761 35.2386C51.2756 35.2386 50.9418 35.331 50.6747 35.5156C50.4105 35.6974 50.2784 35.929 50.2784 36.2102C50.2784 36.4602 50.3693 36.6577 50.5511 36.8026C50.733 36.9474 51.017 37.0682 51.4034 37.1648L52.375 37.4034C52.9602 37.5455 53.3963 37.7628 53.6832 38.0554C53.9702 38.3452 54.1136 38.7187 54.1136 39.1761C54.1136 39.5511 54.0057 39.8864 53.7898 40.1818C53.5767 40.4773 53.2784 40.7102 52.8949 40.8807C52.5114 41.0511 52.0653 41.1364 51.5568 41.1364C50.8892 41.1364 50.3366 40.9915 49.8991 40.7017C49.4616 40.4119 49.1847 39.9886 49.0682 39.4318L50.0227 39.1932C50.1136 39.5455 50.2855 39.8097 50.5384 39.9858C50.794 40.1619 51.1278 40.25 51.5398 40.25C52.0085 40.25 52.3807 40.1506 52.6562 39.9517C52.9347 39.75 53.0739 39.5085 53.0739 39.2273C53.0739 39 52.9943 38.8097 52.8352 38.6562C52.6761 38.5 52.4318 38.3835 52.1023 38.3068L51.0114 38.0511C50.4119 37.9091 49.9716 37.6889 49.6903 37.3906C49.4119 37.0895 49.2727 36.7131 49.2727 36.2614C49.2727 35.892 49.3764 35.5653 49.5838 35.2812C49.794 34.9972 50.0795 34.7741 50.4403 34.6122C50.804 34.4503 51.2159 34.3693 51.6761 34.3693C52.3239 34.3693 52.8324 34.5114 53.2017 34.7955C53.5739 35.0795 53.8381 35.4545 53.9943 35.9205ZM55.6275 41V34.4545H56.6332V41H55.6275ZM56.1388 33.3636C55.9428 33.3636 55.7738 33.2969 55.6317 33.1634C55.4925 33.0298 55.4229 32.8693 55.4229 32.6818C55.4229 32.4943 55.4925 32.3338 55.6317 32.2003C55.7738 32.0668 55.9428 32 56.1388 32C56.3349 32 56.5025 32.0668 56.6417 32.2003C56.7837 32.3338 56.8548 32.4943 56.8548 32.6818C56.8548 32.8693 56.7837 33.0298 56.6417 33.1634C56.5025 33.2969 56.3349 33.3636 56.1388 33.3636ZM61.1172 43.5909C60.6314 43.5909 60.2138 43.5284 59.8643 43.4034C59.5149 43.2812 59.2237 43.1193 58.9908 42.9176C58.7607 42.7188 58.5774 42.5057 58.4411 42.2784L59.2422 41.7159C59.3331 41.8352 59.4482 41.9716 59.5874 42.125C59.7266 42.2812 59.9169 42.4162 60.1584 42.5298C60.4027 42.6463 60.7223 42.7045 61.1172 42.7045C61.6456 42.7045 62.0817 42.5767 62.4254 42.321C62.7692 42.0653 62.9411 41.6648 62.9411 41.1193V39.7898H62.8558C62.782 39.9091 62.6768 40.0568 62.5405 40.233C62.407 40.4062 62.2138 40.5611 61.9609 40.6974C61.7109 40.831 61.3729 40.8977 60.9467 40.8977C60.4183 40.8977 59.9439 40.7727 59.5234 40.5227C59.1058 40.2727 58.7749 39.9091 58.5305 39.4318C58.2891 38.9545 58.1683 38.375 58.1683 37.6932C58.1683 37.0227 58.2862 36.4389 58.522 35.9418C58.7578 35.4418 59.0859 35.0554 59.5064 34.7827C59.9268 34.5071 60.4126 34.3693 60.9638 34.3693C61.3899 34.3693 61.728 34.4403 61.978 34.5824C62.2308 34.7216 62.424 34.8807 62.5575 35.0597C62.6939 35.2358 62.799 35.3807 62.8729 35.4943H62.9751V34.4545H63.9467V41.1875C63.9467 41.75 63.8189 42.2074 63.5632 42.5597C63.3104 42.9148 62.9695 43.1747 62.5405 43.3395C62.1143 43.5071 61.6399 43.5909 61.1172 43.5909ZM61.0831 39.9943C61.4865 39.9943 61.8274 39.902 62.1058 39.7173C62.3842 39.5327 62.5959 39.267 62.7408 38.9205C62.8857 38.5739 62.9581 38.1591 62.9581 37.6761C62.9581 37.2045 62.8871 36.7884 62.745 36.4276C62.603 36.0668 62.3928 35.7841 62.1143 35.5795C61.8359 35.375 61.4922 35.2727 61.0831 35.2727C60.657 35.2727 60.3018 35.3807 60.0178 35.5966C59.7365 35.8125 59.5249 36.1023 59.3828 36.4659C59.2436 36.8295 59.174 37.233 59.174 37.6761C59.174 38.1307 59.245 38.5327 59.3871 38.8821C59.532 39.2287 59.745 39.5014 60.0263 39.7003C60.3104 39.8963 60.6626 39.9943 61.0831 39.9943ZM66.7933 37.0625V41H65.7876V34.4545H66.7592V35.4773H66.8445C66.9979 35.1449 67.2308 34.8778 67.5433 34.6761C67.8558 34.4716 68.2592 34.3693 68.7536 34.3693C69.1967 34.3693 69.5845 34.4602 69.9169 34.642C70.2493 34.821 70.5078 35.0938 70.6925 35.4602C70.8771 35.8239 70.9695 36.2841 70.9695 36.8409V41H69.9638V36.9091C69.9638 36.3949 69.8303 35.9943 69.5632 35.7074C69.2962 35.4176 68.9297 35.2727 68.4638 35.2727C68.1428 35.2727 67.8558 35.3423 67.603 35.4815C67.353 35.6207 67.1555 35.8239 67.0107 36.0909C66.8658 36.358 66.7933 36.6818 66.7933 37.0625ZM75.5515 41.1364C74.9208 41.1364 74.3768 40.9972 73.9194 40.7188C73.4648 40.4375 73.114 40.0455 72.8668 39.5426C72.6225 39.0369 72.5004 38.4489 72.5004 37.7784C72.5004 37.108 72.6225 36.517 72.8668 36.0057C73.114 35.4915 73.4577 35.0909 73.8981 34.804C74.3413 34.5142 74.8583 34.3693 75.4492 34.3693C75.7901 34.3693 76.1268 34.4261 76.4592 34.5398C76.7915 34.6534 77.0941 34.8381 77.3668 35.0938C77.6396 35.3466 77.8569 35.6818 78.0188 36.0994C78.1808 36.517 78.2617 37.0312 78.2617 37.642V38.0682H73.2163V37.1989H77.239C77.239 36.8295 77.1651 36.5 77.0174 36.2102C76.8725 35.9205 76.6651 35.6918 76.3952 35.5241C76.1282 35.3565 75.8129 35.2727 75.4492 35.2727C75.0487 35.2727 74.7021 35.3722 74.4094 35.571C74.1197 35.767 73.8967 36.0227 73.7404 36.3381C73.5842 36.6534 73.506 36.9915 73.506 37.3523V37.9318C73.506 38.4261 73.5913 38.8452 73.7617 39.1889C73.935 39.5298 74.1751 39.7898 74.4819 39.9688C74.7887 40.1449 75.1452 40.233 75.5515 40.233C75.8157 40.233 76.0543 40.196 76.2674 40.1222C76.4833 40.0455 76.6694 39.9318 76.8256 39.7812C76.9819 39.6278 77.1026 39.4375 77.1879 39.2102L78.1594 39.483C78.0572 39.8125 77.8853 40.1023 77.6438 40.3523C77.4023 40.5994 77.104 40.7926 76.7489 40.9318C76.3938 41.0682 75.9947 41.1364 75.5515 41.1364ZM79.7915 41V34.4545H80.7631V35.4432H80.8313C80.9506 35.1193 81.1665 34.8565 81.479 34.6548C81.7915 34.4531 82.1438 34.3523 82.5359 34.3523C82.6097 34.3523 82.7021 34.3537 82.8129 34.3565C82.9237 34.3594 83.0075 34.3636 83.0643 34.3693V35.392C83.0302 35.3835 82.9521 35.3707 82.8299 35.3537C82.7106 35.3338 82.5842 35.3239 82.4506 35.3239C82.1325 35.3239 81.8484 35.3906 81.5984 35.5241C81.3512 35.6548 81.1552 35.8366 81.0103 36.0696C80.8683 36.2997 80.7972 36.5625 80.7972 36.858V41H79.7915Z" fill="#FF3FAC"/>
<path d="M7.2 31.12C6.096 31.12 5.096 30.848 4.2 30.304C3.32 29.76 2.624 28.976 2.112 27.952C1.6 26.912 1.344 25.688 1.344 24.28C1.344 21.848 1.864 19.6 2.904 17.536C3.944 15.456 5.48 13.792 7.512 12.544C9.544 11.28 11.984 10.648 14.832 10.648C15.568 10.648 16.352 10.704 17.184 10.816C18.032 10.928 18.8 11.096 19.488 11.32C19.936 11.448 20.16 11.768 20.16 12.28C20.16 12.696 20 13.088 19.68 13.456C19.376 13.824 19.016 14.008 18.6 14.008C18.472 14.008 18.376 14 18.312 13.984C17.48 13.792 16.768 13.656 16.176 13.576C15.584 13.48 14.96 13.432 14.304 13.432C12.272 13.432 10.544 13.928 9.12 14.92C7.696 15.896 6.632 17.192 5.928 18.808C5.224 20.424 4.872 22.168 4.872 24.04C4.872 25.4 5.136 26.456 5.664 27.208C6.208 27.944 6.912 28.312 7.776 28.312C8.752 28.312 9.608 27.912 10.344 27.112C11.08 26.312 11.752 25.016 12.36 23.224C12.968 21.432 13.568 19 14.16 15.928C14.256 15.48 14.448 15.176 14.736 15.016C15.024 14.856 15.408 14.776 15.888 14.776C17.024 14.776 17.592 15.144 17.592 15.88C17.592 16.008 17.568 16.168 17.52 16.36C17.104 17.912 16.72 19.632 16.368 21.52C16.032 23.392 15.864 24.816 15.864 25.792C15.864 26.656 15.992 27.288 16.248 27.688C16.504 28.072 16.896 28.264 17.424 28.264C17.936 28.264 18.424 28.096 18.888 27.76C19.352 27.408 19.936 26.816 20.64 25.984C20.832 25.76 21.048 25.648 21.288 25.648C21.496 25.648 21.656 25.744 21.768 25.936C21.896 26.128 21.96 26.392 21.96 26.728C21.96 27.352 21.808 27.848 21.504 28.216C20.72 29.16 19.952 29.88 19.2 30.376C18.448 30.872 17.528 31.12 16.44 31.12C15.32 31.12 14.416 30.8 13.728 30.16C13.04 29.504 12.608 28.584 12.432 27.4C11.248 29.88 9.504 31.12 7.2 31.12ZM29.1152 25.648C29.3232 25.648 29.4832 25.744 29.5952 25.936C29.7232 26.128 29.7872 26.392 29.7872 26.728C29.7872 27.368 29.6352 27.864 29.3312 28.216C28.6432 29.064 27.8912 29.76 27.0752 30.304C26.2752 30.848 25.3632 31.12 24.3392 31.12C22.9312 31.12 21.8832 30.48 21.1952 29.2C20.5232 27.92 20.1872 26.264 20.1872 24.232C20.1872 22.28 20.4352 20.056 20.9312 17.56C21.4432 15.064 22.1872 12.92 23.1632 11.128C24.1552 9.336 25.3312 8.44 26.6912 8.44C27.4592 8.44 28.0592 8.8 28.4912 9.52C28.9392 10.224 29.1632 11.24 29.1632 12.568C29.1632 14.472 28.6352 16.68 27.5792 19.192C26.5232 21.704 25.0912 24.192 23.2832 26.656C23.3952 27.312 23.5792 27.784 23.8352 28.072C24.0912 28.344 24.4272 28.48 24.8432 28.48C25.4992 28.48 26.0752 28.296 26.5712 27.928C27.0672 27.544 27.6992 26.896 28.4672 25.984C28.6592 25.76 28.8752 25.648 29.1152 25.648ZM26.1632 10.816C25.7952 10.816 25.3792 11.48 24.9152 12.808C24.4512 14.136 24.0432 15.784 23.6912 17.752C23.3392 19.72 23.1472 21.608 23.1152 23.416C24.2512 21.544 25.1552 19.672 25.8272 17.8C26.4992 15.912 26.8352 14.192 26.8352 12.64C26.8352 11.424 26.6112 10.816 26.1632 10.816ZM40.6153 23.632C40.8233 23.632 40.9833 23.736 41.0953 23.944C41.2073 24.152 41.2633 24.416 41.2633 24.736C41.2633 25.136 41.2073 25.448 41.0953 25.672C40.9833 25.88 40.8073 26.024 40.5673 26.104C39.6073 26.44 38.5513 26.632 37.3993 26.68C37.0793 28.008 36.4713 29.08 35.5753 29.896C34.6953 30.712 33.7193 31.12 32.6473 31.12C31.0313 31.12 29.8553 30.504 29.1193 29.272C28.3833 28.04 28.0153 26.256 28.0153 23.92C28.0153 21.856 28.2713 19.616 28.7833 17.2C29.2953 14.768 30.0393 12.704 31.0153 11.008C32.0073 9.296 33.1833 8.44 34.5433 8.44C35.2793 8.44 35.8713 8.76 36.3193 9.4C36.7673 10.024 36.9913 10.84 36.9913 11.848C36.9913 13.16 36.7433 14.464 36.2473 15.76C35.7513 17.056 34.9273 18.416 33.7753 19.84C34.8473 19.92 35.7193 20.368 36.3913 21.184C37.0633 21.984 37.4633 22.976 37.5913 24.16C38.3433 24.112 39.2393 23.952 40.2793 23.68C40.3753 23.648 40.4873 23.632 40.6153 23.632ZM33.9913 10.816C33.6713 10.816 33.3193 11.296 32.9353 12.256C32.5673 13.2 32.2233 14.488 31.9033 16.12C31.5833 17.752 31.3433 19.536 31.1833 21.472C32.2393 19.536 33.0793 17.832 33.7033 16.36C34.3433 14.872 34.6633 13.552 34.6633 12.4C34.6633 11.888 34.5993 11.496 34.4713 11.224C34.3593 10.952 34.1993 10.816 33.9913 10.816ZM32.7433 28.576C33.2393 28.576 33.6793 28.368 34.0633 27.952C34.4473 27.536 34.7033 26.936 34.8313 26.152C34.3353 25.816 33.9513 25.376 33.6793 24.832C33.4233 24.288 33.2953 23.712 33.2953 23.104C33.2953 22.88 33.3273 22.576 33.3913 22.192H33.3193C32.6633 22.192 32.1113 22.52 31.6633 23.176C31.2313 23.816 31.0153 24.68 31.0153 25.768C31.0153 26.68 31.1833 27.376 31.5193 27.856C31.8713 28.336 32.2793 28.576 32.7433 28.576ZM42.3351 18.232C41.6631 18.232 41.1591 18.08 40.8231 17.776C40.4871 17.456 40.3191 17.016 40.3191 16.456C40.3191 15.896 40.5351 15.432 40.9671 15.064C41.4151 14.68 41.9671 14.488 42.6231 14.488C43.2151 14.488 43.6951 14.632 44.0631 14.92C44.4311 15.208 44.6151 15.616 44.6151 16.144C44.6151 16.784 44.4071 17.296 43.9911 17.68C43.5751 18.048 43.0231 18.232 42.3351 18.232ZM42.1431 31.12C41.1031 31.12 40.3431 30.752 39.8631 30.016C39.3991 29.28 39.1671 28.304 39.1671 27.088C39.1671 26.368 39.2551 25.448 39.4311 24.328C39.6231 23.192 39.8631 22.136 40.1511 21.16C40.2951 20.648 40.4871 20.296 40.7271 20.104C40.9671 19.912 41.3511 19.816 41.8791 19.816C42.6951 19.816 43.1031 20.088 43.1031 20.632C43.1031 21.032 42.9511 21.96 42.6471 23.416C42.2631 25.176 42.0711 26.368 42.0711 26.992C42.0711 27.472 42.1351 27.84 42.2631 28.096C42.3911 28.352 42.6071 28.48 42.9111 28.48C43.1991 28.48 43.5591 28.28 43.9911 27.88C44.4231 27.48 44.9991 26.848 45.7191 25.984C45.9111 25.76 46.1271 25.648 46.3671 25.648C46.5751 25.648 46.7351 25.744 46.8471 25.936C46.9751 26.128 47.0391 26.392 47.0391 26.728C47.0391 27.368 46.8871 27.864 46.5831 28.216C44.9991 30.152 43.5191 31.12 42.1431 31.12ZM46.8013 31.12C46.1933 31.12 45.7613 30.8 45.5053 30.16C45.2653 29.52 45.1453 28.496 45.1453 27.088C45.1453 25.008 45.4413 23.032 46.0333 21.16C46.1773 20.696 46.4093 20.36 46.7293 20.152C47.0653 19.928 47.5293 19.816 48.1213 19.816C48.4413 19.816 48.6653 19.856 48.7933 19.936C48.9213 20.016 48.9853 20.168 48.9853 20.392C48.9853 20.648 48.8653 21.224 48.6253 22.12C48.4653 22.76 48.3373 23.32 48.2413 23.8C48.1453 24.28 48.0653 24.872 48.0013 25.576C48.5293 24.2 49.1213 23.08 49.7773 22.216C50.4333 21.352 51.0733 20.736 51.6973 20.368C52.3373 20 52.9213 19.816 53.4493 19.816C54.4893 19.816 55.0093 20.336 55.0093 21.376C55.0093 22 54.8333 23.128 54.4813 24.76C54.1773 26.152 54.0253 27.072 54.0253 27.52C54.0253 28.16 54.2573 28.48 54.7213 28.48C55.0413 28.48 55.4173 28.288 55.8493 27.904C56.2973 27.504 56.8893 26.864 57.6253 25.984C57.8173 25.76 58.0333 25.648 58.2733 25.648C58.4813 25.648 58.6413 25.744 58.7533 25.936C58.8813 26.128 58.9453 26.392 58.9453 26.728C58.9453 27.368 58.7933 27.864 58.4893 28.216C57.8013 29.064 57.0573 29.76 56.2573 30.304C55.4733 30.848 54.5773 31.12 53.5693 31.12C52.7533 31.12 52.1373 30.888 51.7213 30.424C51.3053 29.944 51.0973 29.256 51.0973 28.36C51.0973 27.912 51.2093 27.112 51.4333 25.96C51.6413 24.952 51.7453 24.256 51.7453 23.872C51.7453 23.616 51.6573 23.488 51.4813 23.488C51.2733 23.488 50.9773 23.76 50.5933 24.304C50.2253 24.832 49.8413 25.536 49.4413 26.416C49.0573 27.296 48.7453 28.224 48.5053 29.2C48.3293 29.952 48.1213 30.464 47.8813 30.736C47.6573 30.992 47.2973 31.12 46.8013 31.12ZM59.7636 31.12C58.8516 31.12 58.1076 30.76 57.5316 30.04C56.9716 29.32 56.6916 28.376 56.6916 27.208C56.6916 25.928 56.9876 24.72 57.5796 23.584C58.1716 22.432 58.9556 21.512 59.9316 20.824C60.9236 20.12 61.9716 19.768 63.0756 19.768C63.4276 19.768 63.6596 19.84 63.7716 19.984C63.8996 20.112 64.0036 20.352 64.0836 20.704C64.3876 20.64 64.7236 20.608 65.0916 20.608C65.4756 20.608 65.7716 20.704 65.9796 20.896C66.1876 21.088 66.2916 21.36 66.2916 21.712C66.2916 22.08 66.2116 22.72 66.0516 23.632C65.8756 24.608 65.7396 25.544 65.6436 26.44C65.5476 27.32 65.4996 28.312 65.4996 29.416C65.4996 30.024 65.3716 30.464 65.1156 30.736C64.8756 30.992 64.4756 31.12 63.9156 31.12C63.3716 31.12 62.9636 30.992 62.6916 30.736C62.4356 30.464 62.3076 30.032 62.3076 29.44L62.3316 29.056C61.8356 30.432 60.9796 31.12 59.7636 31.12ZM60.6996 28.696C61.1476 28.696 61.5556 28.384 61.9236 27.76C62.2916 27.136 62.6196 26.024 62.9076 24.424L63.3636 22C62.7076 22.016 62.0996 22.272 61.5396 22.768C60.9796 23.248 60.5316 23.888 60.1956 24.688C59.8596 25.488 59.6916 26.336 59.6916 27.232C59.6916 27.712 59.7796 28.08 59.9556 28.336C60.1476 28.576 60.3956 28.696 60.6996 28.696Z" fill="#FF3FAC"/>
</svg>
